<?xml version="1.0" encoding="iso-8859-1"?>
<!-- Generator: Adobe Illustrator 19.0.0, SVG Export Plug-In . SVG Version: 6.00 Build 0)  -->
<svg version="1.1" id="Layer_1" xmlns="http://www.w3.org/2000/svg" xmlns:xlink="http://www.w3.org/1999/xlink" x="0px" y="0px"
	 viewBox="0 0 189.585 189.585" style="enable-background:new 0 0 189.585 189.585;" xml:space="preserve" fill="#FFD700">
<g>
	<g>
		<g>
			<path d="M187.567,106.278c-1.234-0.63-2.726-0.512-3.85,0.305l-35.976,26.164c-16.621-23.806-43.55-37.956-72.697-37.956
				c-9.746,0-19.24,1.601-28.193,4.593c-0.73,0.009-1.464,0.167-2.102,0.627c-0.072,0.051-0.107,0.131-0.174,0.187
				c-17.807,6.499-33.302,18.614-43.979,35.074c-0.794,1.223-0.794,2.8,0,4.023c16.441,25.347,44.274,40.48,74.448,40.48
				c28.146,0,54.246-13.176,70.972-35.517l37.701,27.42c0.644,0.469,1.407,0.707,2.174,0.707c0.572,0,1.147-0.133,1.676-0.402
				c1.239-0.631,2.019-1.903,2.019-3.293v-59.119C189.585,108.182,188.806,106.91,187.567,106.278z M43.247,165.908
				C29.27,159.976,17.051,150.18,8.14,137.283c9.383-13.58,22.425-23.741,37.336-29.549c4.392,7.766,15.36,32.144-2.136,57.956
				C43.294,165.758,43.289,165.839,43.247,165.908z M75.044,172.385c-8.541,0-16.874-1.334-24.761-3.846
				c17.629-27.269,7.616-53.062,2.283-63.176c7.209-2.066,14.754-3.181,22.478-3.181c26.855,0,51.684,13.075,66.903,35.102
				C126.726,159.31,101.898,172.385,75.044,172.385z M182.195,161.433l-30.667-22.303l30.667-22.303V161.433z"/>
			
				<rect x="30.704" y="118.373" transform="matrix(-0.4472 -0.8944 0.8944 -0.4472 -63.0926 213.4044)" width="7.39" height="15.652"/>
			<path d="M72.039,73.538c-1.727,1.088-2.246,3.368-1.158,5.095c0.702,1.117,1.903,1.727,3.13,1.727
				c0.673,0,1.353-0.184,1.965-0.568c0.648-0.408,15.703-10.282,2.64-36.298c-3.527-7.024-4.451-13.125-2.744-18.135
				c1.999-5.876,7.123-8.445,7.263-8.514c1.835-0.866,2.63-3.053,1.775-4.897c-0.861-1.853-3.06-2.649-4.907-1.797
				c-0.325,0.151-7.976,3.787-11.074,12.671c-2.438,6.991-1.4,15.061,3.083,23.988C81.922,66.545,72.4,73.293,72.039,73.538z"/>
			<path d="M90.513,73.538c-1.727,1.088-2.246,3.368-1.158,5.095c0.702,1.117,1.903,1.727,3.13,1.727
				c0.673,0,1.353-0.184,1.965-0.568c0.648-0.408,15.703-10.282,2.64-36.298c-3.527-7.024-4.451-13.125-2.744-18.135
				c1.999-5.876,7.123-8.445,7.263-8.514c1.835-0.866,2.63-3.053,1.775-4.897c-0.861-1.853-3.062-2.649-4.907-1.797
				c-0.325,0.151-7.976,3.787-11.074,12.671c-2.438,6.991-1.4,15.061,3.083,23.988C100.397,66.545,90.875,73.293,90.513,73.538z"/>
			<path d="M108.989,73.538c-1.727,1.088-2.246,3.368-1.158,5.095c0.702,1.117,1.903,1.727,3.13,1.727
				c0.673,0,1.353-0.184,1.965-0.568c0.648-0.408,15.703-10.282,2.64-36.298c-3.527-7.024-4.451-13.125-2.744-18.135
				c1.999-5.876,7.123-8.445,7.263-8.514c1.835-0.866,2.63-3.053,1.775-4.897c-0.859-1.853-3.056-2.649-4.907-1.797
				c-0.325,0.151-7.976,3.787-11.074,12.671c-2.438,6.991-1.4,15.061,3.083,23.988C118.872,66.545,109.349,73.293,108.989,73.538z"
				/>
		</g>
	</g>
</g>
<g>
</g>
<g>
</g>
<g>
</g>
<g>
</g>
<g>
</g>
<g>
</g>
<g>
</g>
<g>
</g>
<g>
</g>
<g>
</g>
<g>
</g>
<g>
</g>
<g>
</g>
<g>
</g>
<g>
</g>
</svg>
