<?xml version="1.0" encoding="iso-8859-1"?>
<!-- Generator: Adobe Illustrator 19.0.0, SVG Export Plug-In . SVG Version: 6.00 Build 0)  -->
<svg version="1.1" id="Layer_1" xmlns="http://www.w3.org/2000/svg" xmlns:xlink="http://www.w3.org/1999/xlink" x="0px" y="0px"
	 viewBox="0 0 464.918 464.918" style="enable-background:new 0 0 464.918 464.918;" xml:space="preserve" fill="#FFD700">
<g transform="translate(0 -540.36)">
	<g>
		<g>
			<path d="M286.547,764.792c12.8,0,23.3-10.4,23.3-23.3c0-12.9-10.4-23.3-23.3-23.3c-12.9,0-23.3,10.4-23.3,23.3
				S273.747,764.792,286.547,764.792z M286.547,733.292c4.6,0,8.3,3.7,8.3,8.3s-3.8,8.3-8.3,8.3c-4.6,0-8.3-3.7-8.3-8.3
				S282.047,733.292,286.547,733.292z"/>
			<path d="M319.349,872.487c-12.9,0-23.3,10.4-23.3,23.3s10.5,23.3,23.3,23.3s23.3-10.4,23.3-23.3S332.25,872.487,319.349,872.487z
				 M319.349,904.188c-4.6,0-8.3-3.7-8.3-8.3s3.8-8.3,8.3-8.3c4.6,0,8.3,3.7,8.3,8.3S323.849,904.188,319.349,904.188z"/>
			<path d="M242.946,714.492c12.8,0,23.3-10.4,23.3-23.3c0-12.9-10.4-23.3-23.3-23.3c-12.9,0-23.3,10.4-23.3,23.3
				C219.646,704.092,230.146,714.492,242.946,714.492z M242.946,682.992c4.5,0,8.3,3.7,8.3,8.3s-3.8,8.3-8.3,8.3
				c-4.6,0-8.3-3.7-8.3-8.3S238.446,682.992,242.946,682.992z"/>
			<path d="M464.346,944.792c0-0.1-0.1-0.3-0.1-0.4l-55.8-214.9c-1.6-8.4-7.8-15.3-16.1-17.9c-8.7-2.7-18.1-0.4-24.4,6l-23.5,23.6
				l-39.5-152.9c0-0.1,0-0.2-0.1-0.3c-2.4-8.1-9.1-14.5-17.5-16.6c-8.3-2.1-16.9,0.3-23,6.4l-159.3,160c-6.3,5.6-8.9,14.4-7,22.8
				c1.2,5.1,3.9,9.5,7.6,12.8l-98.5,99c-6.1,6.1-8.5,14.8-6.4,23.1s8.4,15,16.5,17.4c0.1,0,0.2,0.1,0.3,0.1l215.3,54.9
				c2.2,0.6,4.4,0.9,6.6,0.9c5.9,0,11.6-2.2,16.1-6.4c6.3-5.9,9.2-14.7,7.5-23c0-0.1-0.1-0.3-0.1-0.4l-2.7-10.4l173.8,45.8
				c0.1,0,0.3,0.1,0.4,0.1c1.5,0.3,3.1,0.5,4.6,0.5c7.1,0,14.2-3.1,18.5-8.3C463.646,961.792,466.146,953.692,464.346,944.792z
				 M426.146,861.392c0,4.5-3.7,8.3-8.3,8.3c-4.5,0-8.3-3.7-8.3-8.3s3.7-8.3,8.3-8.3
				C422.447,853.092,426.146,856.793,426.146,861.392z M115.245,748.992c0.1-0.1,0.2-0.2,0.4-0.3l159.5-160.2c3.2-3.3,6.8-3,8.7-2.5
				c3.2,0.8,5.7,3.1,6.7,6.2l55.8,216.1c0.3,1,0.8,4.6-2.7,8.1c-0.3,0.3-0.5,0.5-0.7,0.8c-1.3,1.7-5,2.5-8.6,1.8l-109.6-28.1
				l-17.4-66.6l-0.1-0.4v-0.1c-2.4-8.9-9-15.6-17.6-17.8c-8.2-2.2-16.8,0.2-22.9,6.3l-50.3,50.5c-2.5-1.7-3.3-4.3-3.6-5.5
				C112.045,754.192,112.946,750.992,115.245,748.992z M268.146,817.592l-29,29.4l-10.2-39.4L268.146,817.592z M245.346,951.592
				c-1.4,1.3-4.3,3.2-8.6,2h-0.1l-215.2-54.9c-3.1-1-5.4-3.5-6.2-6.7s0.1-6.4,2.5-8.8l105.9-106.4l53.5-53.8
				c3.2-3.2,6.6-2.9,8.4-2.4c0.4,0.1,0.8,0.3,1.2,0.4c2.8,1.2,4.9,3.6,5.7,6.8l35.2,135.5c0,0.1,0,0.2,0.1,0.3l10.7,41l9.9,38
				C249.047,945.892,247.846,949.292,245.346,951.592z M447.846,955.492c-0.6,0.4-1.1,0.9-1.5,1.5c-1.6,2.2-5.5,3.6-8.6,3
				l-181.7-47.9l-3.5-13.4l-9-34.8l41.4-42l45.8,11.7c0.1,0,0.3,0.1,0.4,0.1c1.9,0.4,3.9,0.6,5.8,0.6c7.2,0,13.8-2.8,17.7-7.7
				c5.8-6.1,8.2-14.3,6.3-22l-12-46.5l29.8-29.9c2.5-2.5,6-3.3,9.4-2.3c1.5,0.5,5.1,2,5.9,6.5c0,0.2,0.1,0.4,0.1,0.5l27.4,105.4
				c-1.1-0.2-2.3-0.3-3.4-0.3c-12.8,0-23.3,10.4-23.3,23.3c0,12.9,10.4,23.3,23.3,23.3c5.3,0,10.2-1.8,14.2-4.8l17.7,68.2
				C450.146,950.092,450.346,953.692,447.846,955.492z"/>
			<path d="M103.146,849.992l76.8-23.4c4-1.2,6.2-5.4,5-9.4s-5.4-6.2-9.4-5l-76.8,23.4c-4,1.2-6.2,5.4-5,9.4c1,3.2,4,5.3,7.2,5.3
				C101.646,850.292,102.446,850.192,103.146,849.992z"/>
			<path d="M183.747,851.992l-78,23.4c-3.9,1.2-6.2,5.3-5,9.3c1,3.2,4,5.3,7.2,5.3c0.7,0,1.4-0.1,2.1-0.3l78-23.4
				c3.9-1.2,6.2-5.3,5-9.3C191.846,853.092,187.747,850.792,183.747,851.992z"/>
		</g>
	</g>
</g>
<g>
</g>
<g>
</g>
<g>
</g>
<g>
</g>
<g>
</g>
<g>
</g>
<g>
</g>
<g>
</g>
<g>
</g>
<g>
</g>
<g>
</g>
<g>
</g>
<g>
</g>
<g>
</g>
<g>
</g>
</svg>
